<?xml version="1.0"?>
<svg id="Capa_1" enable-background="new 0 0 428.235 428.235" height="40px" viewBox="0 0 428.235 428.235" width="40px" xmlns="http://www.w3.org/2000/svg"><path d="m388.088 53.529h-241.575c-12.089 0-23.419 5.358-31.091 14.728l-112.403 137.392c-4.025 4.927-4.025 12.01 0 16.937l112.417 137.404c7.658 9.357 18.989 14.715 31.077 14.715h241.575c22.138 0 40.147-18.009 40.147-40.147v-240.881c0-22.139-18.008-40.148-40.147-40.148zm-61.37 208.577-37.847 37.847-47.988-47.988-47.988 47.988-37.847-37.847 47.988-47.988-47.988-47.988 37.847-37.847 47.988 47.988 47.988-47.988 37.847 37.847-47.988 47.988c-.001 0 47.988 47.988 47.988 47.988z"/>
 <g class="layer">
  <title>Layer 1</title>
  <path d="m388.09,53.53l-241.58,0c-12.09,0 -23.42,5.36 -31.09,14.73l-112.4,137.39c-4.03,4.93 -4.03,12.01 0,16.94l112.42,137.4c7.65,9.36 18.99,14.71 31.07,14.71l241.58,0c22.14,0 40.15,-18 40.15,-40.14l0,-240.88c0,-22.14 -18.01,-40.15 -40.15,-40.15zm-61.37,208.58l-37.85,37.84l-47.99,-47.99l-47.98,47.99l-37.85,-37.84l47.99,-47.99l-47.99,-47.99l37.85,-37.85l47.98,47.99l47.99,-47.99l37.85,37.85l-47.99,47.99c0,0 47.99,47.99 47.99,47.99z" fill="#ffffff" id="svg_1"/>
 </g>
</svg>