<?xml version="1.0" encoding="iso-8859-1"?>
<!-- Generator: Adobe Illustrator 19.0.0, SVG Export Plug-In . SVG Version: 6.00 Build 0)  -->
<svg version="1.1" width="267px" height="40px" id="Layer_1" xmlns="http://www.w3.org/2000/svg" xmlns:xlink="http://www.w3.org/1999/xlink" x="0px" y="0px"
	 viewBox="100 100 330 50" style="enable-background:new 0 0 512 512;" xml:space="preserve">
<g>
	<rect x="46.545" y="201.697" style="fill:#FFFFFF;" width="418.909" height="263.758"/>
	<rect x="46.545" y="46.545" style="fill:#FFFFFF;" width="418.909" height="108.606"/>
</g>
<path style="fill:#FFFFFF;" d="M488.727,0H23.273C10.42,0,0,10.42,0,23.273v155.152v310.303C0,501.58,10.42,512,23.273,512h465.455
	C501.58,512,512,501.58,512,488.727V178.424V23.273C512,10.42,501.58,0,488.727,0z M465.455,465.455H46.545V201.697h418.909V465.455
	z M465.455,155.152H46.545V46.545h418.909V155.152z"/>
<g>
	<rect x="256" y="201.697" style="fill:#FFFFFF;" width="209.455" height="263.758"/>
	<rect x="256" y="46.545" style="fill:#FFFFFF;" width="209.455" height="108.606"/>
</g>
<path style="fill:#FFFFFF;" d="M46.545,465.455V201.697H256v-46.545H46.545V46.545H256V0H23.273C10.42,0,0,10.42,0,23.273v155.152
	v310.303C0,501.58,10.42,512,23.273,512H256v-46.545H46.545z"/>
<g>
</g>
<g>
</g>
<g>
</g>
<g>
</g>
<g>
</g>
<g>
</g>
<g>
</g>
<g>
</g>
<g>
</g>
<g>
</g>
<g>
</g>
<g>
</g>
<g>
</g>
<g>
</g>
<g>
</g>
</svg>
