<?xml version="1.0"?>
<svg xmlns="http://www.w3.org/2000/svg" width="300px" height="425px" viewBox="0 0 128 128"><g><path d="M120.25,20.747H7.75A7.759,7.759,0,0,0,0,28.5v71a7.759,7.759,0,0,0,7.75,7.75h112.5A7.759,7.759,0,0,0,128,99.5v-71A7.759,7.759,0,0,0,120.25,20.747ZM124.5,99.5a4.255,4.255,0,0,1-4.25,4.25H7.75A4.255,4.255,0,0,1,3.5,99.5v-71a4.255,4.255,0,0,1,4.25-4.25h112.5a4.255,4.255,0,0,1,4.25,4.25Z"/><path d="M31.617,34.247a1.75,1.75,0,0,0,0-3.5H11.75A1.751,1.751,0,0,0,10,32.5V59a1.751,1.751,0,0,0,1.75,1.75H31.617A1.751,1.751,0,0,0,33.367,59V45.749A1.751,1.751,0,0,0,31.617,44H21.684a1.75,1.75,0,0,0,0,3.5h8.183v9.752H13.5v-23Z"/><path d="M59.828,30.747H39.961a1.751,1.751,0,0,0-1.75,1.75V59a1.75,1.75,0,0,0,3.5,0V47.5H58.078V59a1.75,1.75,0,1,0,3.5,0V32.5A1.751,1.751,0,0,0,59.828,30.747ZM41.711,44V34.247H58.078V44Z"/><path d="M116.25,34.247a1.75,1.75,0,0,0,0-3.5H96.383a1.751,1.751,0,0,0-1.75,1.75V59a1.751,1.751,0,0,0,1.75,1.75H116.25a1.75,1.75,0,0,0,0-3.5H98.133V47.5H116.25a1.75,1.75,0,0,0,0-3.5H98.133V34.247Z"/><path d="M31.617,67.243H11.75A1.751,1.751,0,0,0,10,68.993V95.5a1.751,1.751,0,0,0,1.75,1.75H31.617a1.751,1.751,0,0,0,1.75-1.75v-26.5A1.751,1.751,0,0,0,31.617,67.243Zm-1.75,26.5H13.5v-23H29.867Z"/><path d="M110.25,67.243H96.383a1.751,1.751,0,0,0-1.75,1.75V95.5a1.75,1.75,0,0,0,3.5,0V84H103a11.515,11.515,0,0,1,11.5,11.5,1.75,1.75,0,1,0,3.5,0,14.985,14.985,0,0,0-5.714-11.773A7.763,7.763,0,0,0,118,76.245V74.993A7.759,7.759,0,0,0,110.25,67.243Zm4.25,9a4.255,4.255,0,0,1-4.25,4.25H98.133V70.743H110.25a4.255,4.255,0,0,1,4.25,4.25Z"/><path d="M88.762,30.9a1.751,1.751,0,0,0-1.875.277l-8.782,7.682L69.324,31.18a1.75,1.75,0,0,0-2.9,1.317V59a1.75,1.75,0,1,0,3.5,0V36.353L76.953,42.5a1.749,1.749,0,0,0,2.3,0l7.031-6.151V59a1.75,1.75,0,0,0,3.5,0V32.5A1.749,1.749,0,0,0,88.762,30.9Z"/><path d="M88.039,70.743a1.75,1.75,0,0,0,0-3.5H68.172a1.751,1.751,0,0,0-1.75,1.75V95.5a1.751,1.751,0,0,0,1.75,1.75H88.039a1.75,1.75,0,0,0,0-3.5H69.922V84H88.039a1.75,1.75,0,0,0,0-3.5H69.922V70.743Z"/><path d="M60.442,67.355a1.75,1.75,0,0,0-2.253,1.024l-8.3,22.132L41.6,68.379a1.75,1.75,0,0,0-3.278,1.228l9.934,26.5a1.75,1.75,0,0,0,3.277,0l9.934-26.5A1.749,1.749,0,0,0,60.442,67.355Z"/></g></svg>
