<?xml version="1.0" encoding="iso-8859-1"?>
<!-- Generator: Adobe Illustrator 19.0.0, SVG Export Plug-In . SVG Version: 6.00 Build 0)  -->
<svg version="1.1" width="60px" height="140px"  id="Layer_1" xmlns="http://www.w3.org/2000/svg" xmlns:xlink="http://www.w3.org/1999/xlink" x="0px" y="0px"
	 viewBox="0 0 512 512" style="enable-background:new 0 0 512 512;" xml:space="preserve">
<path style="fill:#d4d3d5;" d="M256,512C114.839,512,0,397.161,0,256S114.839,0,256,0s256,114.839,256,256S397.161,512,256,512z"/>
<path style="fill:#d4d3d5;" d="M512,256C512,114.839,397.161,0,256,0v512C397.161,512,512,397.161,512,256z"/>
<path style="fill:#00000;" d="M389.594,239.301H272.699V122.406c0-9.225-7.475-16.699-16.699-16.699
	c-9.225,0-16.699,7.475-16.699,16.699v116.895H122.406c-9.225,0-16.699,7.475-16.699,16.699c0,9.225,7.475,16.699,16.699,16.699
	h116.895v116.895c0,9.225,7.475,16.699,16.699,16.699c9.225,0,16.699-7.475,16.699-16.699V272.699h116.895
	c9.225,0,16.699-7.475,16.699-16.699C406.294,246.775,398.819,239.301,389.594,239.301z"/>
<path style="fill:#00000;" d="M389.594,239.301H272.699V122.406c0-9.225-7.475-16.699-16.699-16.699v133.594v33.399v133.594
	c9.225,0,16.699-7.475,16.699-16.699V272.699h116.895c9.225,0,16.699-7.475,16.699-16.699
	C406.294,246.775,398.819,239.301,389.594,239.301z"/>
<g>
</g>
<g>
</g>
<g>
</g>
<g>
</g>
<g>
</g>
<g>
</g>
<g>
</g>
<g>
</g>
<g>
</g>
<g>
</g>
<g>
</g>
<g>
</g>
<g>
</g>
<g>
</g>
<g>
</g>
</svg>
